<?xml version="1.0" encoding="UTF-8" standalone="no"?>
<svg
   xmlns:dc="http://purl.org/dc/elements/1.1/"
   xmlns:cc="http://creativecommons.org/ns#"
   xmlns:rdf="http://www.w3.org/1999/02/22-rdf-syntax-ns#"
   xmlns:svg="http://www.w3.org/2000/svg"
   xmlns="http://www.w3.org/2000/svg"
   xmlns:sodipodi="http://sodipodi.sourceforge.net/DTD/sodipodi-0.dtd"
   xmlns:inkscape="http://www.inkscape.org/namespaces/inkscape"
   version="1.1"
   width="512"
   height="512"
   x="0"
   y="0"
   viewBox="0 0 884 884.99775"
   style="enable-background:new 0 0 512 512"
   xml:space="preserve"
   class=""
   id="svg7"
   sodipodi:docname="frances.svg"
   inkscape:version="1.0.1 (3bc2e813f5, 2020-09-07)"><metadata
     id="metadata13"><rdf:RDF><cc:Work
         rdf:about=""><dc:format>image/svg+xml</dc:format><dc:type
           rdf:resource="http://purl.org/dc/dcmitype/StillImage" /></cc:Work></rdf:RDF></metadata><defs
     id="defs11" /><sodipodi:namedview
     pagecolor="#ffffff"
     bordercolor="#666666"
     borderopacity="1"
     objecttolerance="10"
     gridtolerance="10"
     guidetolerance="10"
     inkscape:pageopacity="0"
     inkscape:pageshadow="2"
     inkscape:window-width="1920"
     inkscape:window-height="1001"
     id="namedview9"
     showgrid="false"
     inkscape:zoom="1.6210938"
     inkscape:cx="256"
     inkscape:cy="305.3494"
     inkscape:window-x="1699"
     inkscape:window-y="-9"
     inkscape:window-maximized="1"
     inkscape:current-layer="svg7" /><g
     id="g5"
     transform="translate(171.66824,2.1325247)">
<g
   id="surface1">
<path
   d="m 148,884.99609 h 44.25 v -29.5 H 168.46094 L 178.25,826.11328 c 18.85156,-56.61328 80.02344,-87.22656 136.64453,-68.375 32.29297,10.74609 57.63281,36.08203 68.38281,68.375 l 9.76563,29.38281 h -23.78906 v 29.5 h 191.75 v -29.5 H 540.34766 L 438.08594,663.75 h 19.66797 v -29.5 H 423.82812 L 375.55078,501.5 h 23.20313 V 472 H 367.45312 L 327.05078,162.25 h 27.44531 v -29.5 H 325.00781 V 88.5 c 0,-8.148438 -6.60937,-14.753906 -14.75781,-14.753906 H 295.49609 V 0 H 266.00781 V 73.746094 H 251.25 c -8.14844,0 -14.75391,6.605468 -14.75391,14.753906 v 44.25 H 207 v 29.5 h 27.45312 L 194.05078,472 H 162.75 v 29.5 h 23.1875 l -48.26563,132.75 h -33.91796 v 29.5 h 19.66015 L 21.148438,855.49609 H 0.5 v 29.5 z m 118.00781,-781.75 h 29.48828 V 132.75 H 266.00781 Z M 264.20312,162.25 h 33.09766 L 337.69922,472 H 223.79687 Z m -46.8789,339.25 h 126.85156 l 48.25781,132.75 h -41.5625 L 324.42578,541.69141 C 322.61719,535.36328 316.82812,531.00781 310.25,531 h -59 c -6.57813,0.008 -12.35938,4.36328 -14.17188,10.69141 L 210.62891,634.25 H 169.05859 Z M 320.1875,634.25 h -78.875 l 21.05469,-73.75 h 36.76172 z m -163.33594,29.5 h 247.80078 l 102.26172,191.74609 h -82.78125 l -12.90234,-38.71093 c -24.03516,-72.0625 -101.9336,-110.9961 -174,-86.96875 -41.05078,13.69531 -73.26563,45.91015 -86.95703,86.96875 l -12.90625,38.71093 H 54.589844 Z m 0,0"
   fill="#ffffff"
   data-original="#000000"
   class=""
   id="path2" />
</g>
</g></svg>
