<?xml version="1.0" encoding="UTF-8" standalone="no"?>
<svg
   xmlns:dc="http://purl.org/dc/elements/1.1/"
   xmlns:cc="http://creativecommons.org/ns#"
   xmlns:rdf="http://www.w3.org/1999/02/22-rdf-syntax-ns#"
   xmlns:svg="http://www.w3.org/2000/svg"
   xmlns="http://www.w3.org/2000/svg"
   xmlns:sodipodi="http://sodipodi.sourceforge.net/DTD/sodipodi-0.dtd"
   xmlns:inkscape="http://www.inkscape.org/namespaces/inkscape"
   version="1.1"
   width="512"
   height="512"
   x="0"
   y="0"
   viewBox="0 0 512 512.00001"
   style="enable-background:new 0 0 512 512"
   xml:space="preserve"
   id="svg16"
   sodipodi:docname="ingles.svg"
   inkscape:version="1.0.1 (3bc2e813f5, 2020-09-07)"><metadata
     id="metadata22"><rdf:RDF><cc:Work
         rdf:about=""><dc:format>image/svg+xml</dc:format><dc:type
           rdf:resource="http://purl.org/dc/dcmitype/StillImage" /></cc:Work></rdf:RDF></metadata><defs
     id="defs20" /><sodipodi:namedview
     pagecolor="#ffffff"
     bordercolor="#666666"
     borderopacity="1"
     objecttolerance="10"
     gridtolerance="10"
     guidetolerance="10"
     inkscape:pageopacity="0"
     inkscape:pageshadow="2"
     inkscape:window-width="1920"
     inkscape:window-height="1001"
     id="namedview18"
     showgrid="false"
     inkscape:zoom="1.6210938"
     inkscape:cx="256"
     inkscape:cy="256"
     inkscape:window-x="1699"
     inkscape:window-y="-9"
     inkscape:window-maximized="1"
     inkscape:current-layer="svg16" /><g
     id="g14"
     transform="translate(113.50361,4.9349398)"><path
       d="M 289.90234,142.35547 H 252.86328 V 88.601562 L 144.94922,0 37.039062,88.601562 V 142.35547 H 0 V 432.25781 H 17.054688 V 512 h 30.09375 V 432.25781 H 242.75391 V 512 h 30.09375 v -79.74219 h 17.05468 z M 198.21094,82.664062 H 91.691406 L 144.94922,38.9375 Z M 67.132812,112.75781 H 222.76953 v 29.59766 H 67.132812 Z M 30.09375,402.16016 V 172.44922 h 229.71484 v 229.71094 z m 0,0"
       fill="#ffffff"
       data-original="#000000"
       id="path2" /><path
       d="m 144.94922,194.20312 c -51.335939,0 -93.101564,41.76563 -93.101564,93.10157 0,51.33593 41.765625,93.10156 93.101564,93.10156 51.33984,0 93.10547,-41.76563 93.10547,-93.10156 0,-51.33594 -41.76563,-93.10157 -93.10547,-93.10157 z m 0,156.11329 c -34.74219,0 -63.007814,-28.26563 -63.007814,-63.01172 0,-34.74219 28.265624,-63.00781 63.007814,-63.00781 34.74609,0 63.01172,28.26562 63.01172,63.00781 0,34.74609 -28.26563,63.01172 -63.01172,63.01172 z m 0,0"
       fill="#ffffff"
       data-original="#000000"
       id="path4" /><path
       d="m 159.99609,248.18359 h -30.09375 v 54.16797 h 51.13282 v -30.09375 h -21.03907 z m 0,0"
       fill="#ffffff"
       data-original="#000000"
       id="path6" /><path
       d="M 76.070312,464.60547 H 106.16406 V 512 H 76.070312 Z m 0,0"
       fill="#ffffff"
       data-original="#000000"
       id="path8" /><path
       d="m 129.90234,464.60547 h 30.09375 V 512 h -30.09375 z m 0,0"
       fill="#ffffff"
       data-original="#000000"
       id="path10" /><path
       d="m 183.73828,464.60547 h 30.09375 V 512 h -30.09375 z m 0,0"
       fill="#ffffff"
       data-original="#000000"
       id="path12" /></g></svg>
